<?xml version="1.0" encoding="utf-8"?>
<!-- Generator: Adobe Illustrator 19.2.0, SVG Export Plug-In . SVG Version: 6.00 Build 0)  -->
<svg version="1.1" id="Layer_1" xmlns="http://www.w3.org/2000/svg" xmlns:xlink="http://www.w3.org/1999/xlink" x="0px" y="0px"
	 viewBox="0 0 204.6 50.5" style="enable-background:new 0 0 204.6 50.5;" xml:space="preserve">
<style type="text/css">
	.st0{fill:#19335E;}
	.st1{fill-rule:evenodd;clip-rule:evenodd;fill:#00AEEF;}
	.st2{fill-rule:evenodd;clip-rule:evenodd;fill:#F58220;}
	.st3{fill-rule:evenodd;clip-rule:evenodd;fill:#00A651;}
</style>
<g id="XMLID_19_">
	<g id="XMLID_21_">
		<g>
			<path class="st0" d="M80.3,43.3c0,3.6-0.9,4.8-3.6,4.8c-2.6,0-3.6-1.2-3.6-4.8c0-3.6,0.9-4.8,3.6-4.8
				C79.4,38.5,80.3,39.7,80.3,43.3z M74.1,43.3c0,3,0.7,4,2.6,4c2,0,2.6-1,2.6-4s-0.7-4-2.6-4C74.8,39.3,74.1,40.3,74.1,43.3z"/>
			<path class="st0" d="M87.8,43v4.9H87v-4.6c0-0.9-0.3-1.3-1.1-1.3c-0.8,0-1.6,0.4-2.7,1.1l0,4.8h-0.9v-6.5H83l0.1,1.1
				c1-0.8,2-1.2,3-1.2C87.2,41.2,87.8,41.9,87.8,43z"/>
			<path class="st0" d="M90.9,46.3c0,0.6,0.3,0.9,0.9,0.9h0.7l0.1,0.6c-0.2,0.1-0.8,0.1-1.1,0.1c-0.9,0-1.5-0.5-1.5-1.5v-7.9h0.8
				V46.3z"/>
			<path class="st0" d="M94.8,39v0.8c0,0.2-0.1,0.3-0.3,0.3h-0.4c-0.2,0-0.3-0.1-0.3-0.3V39c0-0.2,0.1-0.3,0.3-0.3h0.4
				C94.7,38.7,94.8,38.8,94.8,39z M94.7,47.9h-0.8v-6.5h0.8V47.9z"/>
			<path class="st0" d="M102.5,43v4.9h-0.8v-4.6c0-0.9-0.3-1.3-1.1-1.3c-0.8,0-1.6,0.4-2.7,1.1l0,4.8H97v-6.5h0.7l0.1,1.1
				c1-0.8,2-1.2,3-1.2C101.9,41.2,102.5,41.9,102.5,43z"/>
			<path class="st0" d="M109.8,47.2l0.1,0.6c-0.5,0.2-1.7,0.3-2.4,0.3c-2.2,0-3-0.9-3-3.4c0-2.5,0.8-3.4,2.9-3.4
				c1.9,0,2.7,0.7,2.7,2c0,1.2-0.4,1.8-1.5,1.8h-3.2c0.1,1.8,0.7,2.2,2.2,2.2C108.3,47.3,109.2,47.2,109.8,47.2z M105.3,44.4h3
				c0.7,0,0.8-0.5,0.8-1.1c0-0.9-0.5-1.3-1.8-1.3C105.9,42,105.3,42.6,105.3,44.4z"/>
			<path class="st0" d="M115.7,46.3c0,0.6,0.3,0.9,0.9,0.9h0.7l0.1,0.6c-0.2,0.1-0.8,0.1-1.1,0.1c-0.9,0-1.5-0.5-1.5-1.5v-7.9h0.8
				V46.3z"/>
			<path class="st0" d="M123.8,47.2l0.1,0.6c-0.5,0.2-1.7,0.3-2.4,0.3c-2.2,0-3-0.9-3-3.4c0-2.5,0.8-3.4,2.9-3.4
				c1.9,0,2.7,0.7,2.7,2c0,1.2-0.4,1.8-1.5,1.8h-3.2c0.1,1.8,0.7,2.2,2.2,2.2C122.3,47.3,123.1,47.2,123.8,47.2z M119.3,44.4h3
				c0.7,0,0.8-0.5,0.8-1.1c0-0.9-0.5-1.3-1.8-1.3C119.8,42,119.3,42.6,119.3,44.4z"/>
			<path class="st0" d="M130.9,43.2v4.6h-0.7l-0.1-1.1c-0.5,0.5-1.6,1.2-2.8,1.2c-1.1,0-1.8-0.6-1.8-1.7v-0.7c0-1,0.6-1.6,1.7-1.6
				h2.9v-0.7c0-0.8-0.3-1.3-1.4-1.3c-0.8,0-1.9,0.1-2.9,0.2l-0.1-0.6c0.9-0.1,2-0.3,3.1-0.3C130.2,41.2,130.9,41.8,130.9,43.2z
				 M130.1,46.2v-1.6l-2.8,0c-0.7,0-1,0.4-1,1v0.6c0,0.7,0.4,1.1,1.1,1.1C128.2,47.3,129.3,46.8,130.1,46.2z"/>
			<path class="st0" d="M137,41.2l-0.1,0.8h-0.3c-0.8,0-1.5,0.4-2.6,1v4.8h-0.9v-6.5h0.7l0.1,1.1c1-0.8,1.9-1.3,2.9-1.3H137z"/>
			<path class="st0" d="M143.9,43v4.9h-0.8v-4.6c0-0.9-0.3-1.3-1.1-1.3c-0.8,0-1.6,0.4-2.7,1.1l0,4.8h-0.9v-6.5h0.7l0.1,1.1
				c1-0.8,2-1.2,3-1.2C143.3,41.2,143.9,41.9,143.9,43z"/>
			<path class="st0" d="M147.1,39v0.8c0,0.2-0.1,0.3-0.3,0.3h-0.4c-0.2,0-0.3-0.1-0.3-0.3V39c0-0.2,0.1-0.3,0.3-0.3h0.4
				C147,38.7,147.1,38.8,147.1,39z M147,47.9h-0.8v-6.5h0.8V47.9z"/>
			<path class="st0" d="M154.8,43v4.9h-0.8v-4.6c0-0.9-0.3-1.3-1.1-1.3c-0.8,0-1.6,0.4-2.7,1.1l0,4.8h-0.9v-6.5h0.7l0.1,1.1
				c1-0.8,2-1.2,3-1.2C154.2,41.2,154.8,41.9,154.8,43z"/>
			<path class="st0" d="M162.9,41.9l-1.1,0.1c0.3,0.3,0.4,0.8,0.4,1.3c0,1.4-0.7,2-2.7,2c-0.6,0-1.1-0.1-1.5-0.2
				c-0.4,0.5-0.4,1.2,0.5,1.3l2.5,0.4c1.2,0.2,1.6,0.7,1.6,1.8c0,1.5-0.8,1.9-3,1.9c-2.3,0-3-0.5-3-1.9c0-0.9,0.3-1.3,1.1-1.7
				c-0.8-0.5-0.7-1.5,0-2c-0.6-0.3-0.8-0.9-0.8-1.7c0-1.4,0.7-2.1,2.7-2.1c0.6,0,1.1,0.1,1.5,0.2h2L162.9,41.9z M160.6,47.5
				l-2.4-0.4l-0.1,0c-0.6,0.4-0.8,0.7-0.8,1.4c0,1,0.5,1.3,2.2,1.3c1.7,0,2.2-0.3,2.2-1.3C161.7,47.9,161.5,47.7,160.6,47.5z
				 M161.4,43.3c0-1-0.5-1.4-1.9-1.4c-1.4,0-1.9,0.4-1.9,1.4c0,0.9,0.5,1.4,1.9,1.4C160.9,44.7,161.4,44.3,161.4,43.3z"/>
			<path class="st0" d="M173.1,44.7c0,2.5-0.7,3.4-2.4,3.4c-0.9,0-1.7-0.2-2.5-0.7c0,0.5,0,0.8,0,1.3v2h-0.8v-9.2h0.7l0.1,1.1
				c0.8-0.8,1.8-1.2,2.7-1.2C172.5,41.2,173.1,42.4,173.1,44.7z M172.2,44.7c0-2-0.5-2.7-1.6-2.7c-0.7,0-1.4,0.3-2.4,1.1v3.7
				c0.9,0.3,1.5,0.5,2.3,0.5C171.8,47.3,172.2,46.7,172.2,44.7z"/>
			<path class="st0" d="M180.7,44.7c0,2.5-0.8,3.4-3,3.4c-2.2,0-3-0.9-3-3.4s0.8-3.4,3-3.4C179.9,41.2,180.7,42.2,180.7,44.7z
				 M175.6,44.7c0,2,0.5,2.7,2.1,2.7c1.6,0,2.1-0.6,2.1-2.7c0-2-0.5-2.7-2.1-2.7C176.2,42,175.6,42.6,175.6,44.7z"/>
			<path class="st0" d="M186.5,41.2l-0.1,0.8h-0.3c-0.8,0-1.5,0.4-2.6,1v4.8h-0.9v-6.5h0.7l0.1,1.1c1-0.8,1.9-1.3,2.9-1.3H186.5z"/>
			<path class="st0" d="M189.1,42.1v4.2c0,0.7,0.3,0.9,0.9,0.9h1.1l0.1,0.6c-0.4,0.1-1.1,0.1-1.3,0.1c-1.1,0-1.6-0.6-1.6-1.6v-4.3
				h-1.2v-0.6l1.2-0.1v-2h0.8v2h2.2v0.7H189.1z"/>
			<path class="st0" d="M197.9,43.2v4.6h-0.7l-0.1-1.1c-0.5,0.5-1.6,1.2-2.8,1.2c-1.1,0-1.8-0.6-1.8-1.7v-0.7c0-1,0.6-1.6,1.7-1.6
				h2.9v-0.7c0-0.8-0.3-1.3-1.4-1.3c-0.8,0-1.9,0.1-2.9,0.2l-0.1-0.6c0.9-0.1,2-0.3,3.1-0.3C197.1,41.2,197.9,41.8,197.9,43.2z
				 M197,46.2v-1.6l-2.8,0c-0.7,0-1,0.4-1,1v0.6c0,0.7,0.4,1.1,1.1,1.1C195.2,47.3,196.3,46.8,197,46.2z"/>
			<path class="st0" d="M200.9,46.3c0,0.6,0.3,0.9,0.9,0.9h0.7l0.1,0.6c-0.2,0.1-0.8,0.1-1.1,0.1c-0.9,0-1.5-0.5-1.5-1.5v-7.9h0.8
				V46.3z"/>
		</g>
	</g>
	<g id="XMLID_1_">
		<path class="st0" d="M80.9,26.7v7.2H76v-7.2l-7.2-14.6h5l3.6,8c0.4,0.9,0.6,1.9,0.8,2.8h0.3c0.2-0.9,0.4-1.9,0.8-2.8l3.6-8h5
			L80.9,26.7z"/>
		<path class="st0" d="M107.6,23c0,8.8-2.5,11.3-9.4,11.3c-6.9,0-9.3-2.6-9.3-11.3s2.4-11.3,9.3-11.3
			C105.1,11.7,107.6,14.2,107.6,23z M94,23c0,5.8,1,7.4,4.3,7.4c3.3,0,4.3-1.6,4.3-7.4c0-5.8-1-7.4-4.3-7.4C95,15.6,94,17.2,94,23z"
			/>
		<path class="st0" d="M114.5,29.5c0,1.5,0.7,2.1,2.1,2.1h7.9l0.1,2.2c-2.8,0.2-5.6,0.2-8.5,0.2c-3.2,0-4.4-1.7-4.4-4.1V12.1h2.8
			V29.5z"/>
		<path class="st0" d="M141.4,31.6l0.1,2.2c-2.9,0.2-6.2,0.2-9.4,0.2c-2.6,0-4.2-1.5-4.2-3.8V15.9c0-2.3,1.6-3.8,4.2-3.8
			c3.1,0,6.5,0,9.4,0.2l-0.1,2.2h-8.8c-1.3,0-1.9,0.6-1.9,2.1v4.7h9.4v2.2h-9.4v6c0,1.5,0.6,2.1,1.9,2.1H141.4z"/>
		<path class="st0" d="M157.4,27.1h-9l-2.2,6.8h-2.9l7-21.1c0.1-0.5,0.5-0.8,1-0.8h2.9c0.5,0,0.9,0.3,1,0.8l7,21.1h-2.9L157.4,27.1z
			 M156.6,24.7l-2.8-8.7c-0.2-0.6-0.4-1.2-0.5-1.8h-0.9c-0.2,0.6-0.3,1.2-0.5,1.8l-2.8,8.7H156.6z"/>
		<path class="st0" d="M180.9,33.9h-3l-1.9-6.8c-0.6-1.6-1.5-2.3-2.9-2.3c-2,0-3.6,0-4.8,0v9.1h-2.8V12.1c2.4-0.3,4-0.3,7.5-0.3
			c5.1,0,7.1,1.4,7.1,6.3c0,3.5-1.1,5.3-4,5.6v0.2c1.1,0.3,2.2,1.3,2.7,3.1L180.9,33.9z M177.3,18.3c0-3.2-1.1-4.1-4.3-4.1
			c-1.9,0-3.5,0-4.7,0v8.2h4.7C176.2,22.4,177.3,21.5,177.3,18.3z"/>
		<path class="st0" d="M201.9,32.8c0,0.7-0.4,1.1-1.1,1.1h-2.7c-0.6,0-1-0.3-1.2-0.9l-7.4-15.5c-0.4-0.8-1-2-1.2-2.9h-0.5
			c0.1,0.9,0.1,1.9,0.1,2.9v16.4h-2.8V13.2c0-0.7,0.4-1.1,1.1-1.1h2.6c0.6,0,1,0.3,1.2,0.9l7.2,15.1c0.4,0.9,1,2.1,1.5,3.2h0.5
			c-0.1-1.1-0.1-2.2-0.1-3.3V12.1h2.8V32.8z"/>
	</g>
	<g id="XMLID_66_">
		<path id="XMLID_107_" class="st1" d="M26.4,0.5c0.2-0.1,0.4-0.3,0.5-0.5h4.3C30.4,2.2,29,4.2,27,6C26.7,4.2,26.5,2.4,26.4,0.5"/>
		<path id="XMLID_106_" class="st1" d="M19,11c-0.2-2.1-0.3-4.1-0.3-6.3c2.7-1.1,4.9-2.3,6.8-3.7c0.1,1.9,0.4,3.8,0.7,5.5
			c-0.3,0.2-0.6,0.5-0.9,0.7C23.6,8.7,21.4,9.9,19,11"/>
		<path id="XMLID_105_" class="st1" d="M32.3,0h4.2c-0.4,2.4-1.1,4.6-2.1,6.7C33.4,4.6,32.7,2.4,32.3,0"/>
		<path id="XMLID_104_" class="st1" d="M27.2,6.9c2-1.7,3.5-3.7,4.4-5.8c0.5,2.3,1.2,4.4,2.2,6.4c-0.9,1.6-1.9,3.2-3.1,4.6
			c-0.5,0.6-1,1.1-1.5,1.7C28.4,11.7,27.7,9.4,27.2,6.9"/>
		<path id="XMLID_103_" class="st1" d="M20.7,20.6c-0.8-2.8-1.3-5.7-1.6-8.7c2.6-1.1,4.9-2.4,6.8-3.9c0.2-0.2,0.4-0.3,0.6-0.5
			c0.5,2.5,1.2,4.8,2.1,7.1C26.3,16.8,23.7,18.8,20.7,20.6"/>
		<path id="XMLID_102_" class="st1" d="M37.5,0h4.3c0.2,0.2,0.4,0.3,0.5,0.5C42.2,2.4,42,4.2,41.7,6C39.7,4.2,38.3,2.2,37.5,0"/>
		<path id="XMLID_101_" class="st1" d="M34.8,7.6c1-2,1.8-4.2,2.2-6.4c0.9,2.1,2.4,4,4.4,5.8c-0.5,2.5-1.2,4.8-2.1,7
			c-0.5-0.5-1-1.1-1.5-1.7C36.7,10.8,35.7,9.3,34.8,7.6"/>
		<path id="XMLID_100_" class="st1" d="M29.6,14.8c0.6-0.6,1.2-1.3,1.8-2c1.1-1.3,2.1-2.8,2.9-4.3c0.8,1.5,1.8,2.9,2.9,4.3
			c0.6,0.7,1.2,1.4,1.8,2c-0.6,1.4-1.2,2.7-1.9,4c-0.8,1.5-1.8,2.9-2.8,4.2c-1-1.3-1.9-2.8-2.8-4.2C30.9,17.5,30.2,16.2,29.6,14.8"
			/>
		<path id="XMLID_99_" class="st1" d="M25.9,31.3c-2.2-2.9-3.9-6.2-5-9.9c3-1.7,5.7-3.7,8.1-6c0.6,1.3,1.2,2.6,1.9,3.8
			c0.9,1.6,1.9,3.1,3,4.5C31.5,26.6,28.9,29.1,25.9,31.3"/>
		<path id="XMLID_98_" class="st1" d="M42.4,6.6C42.7,4.8,43,3,43.1,1.1C45,2.4,47.3,3.7,50,4.8c0,2.1-0.1,4.2-0.2,6.3
			c-2.5-1.1-4.6-2.3-6.4-3.7C43,7.1,42.7,6.9,42.4,6.6"/>
		<path id="XMLID_97_" class="st1" d="M40.1,14.6c0.9-2.2,1.6-4.6,2.1-7.1c0.2,0.2,0.4,0.3,0.6,0.5c1.9,1.4,4.2,2.7,6.8,3.9
			c-0.3,3-0.8,5.9-1.6,8.7C45,18.8,42.3,16.8,40.1,14.6"/>
		<path id="XMLID_96_" class="st1" d="M34.9,23.7c1.1-1.4,2.1-2.9,3-4.5c0.7-1.2,1.3-2.5,1.9-3.8c2.3,2.2,5,4.2,8.1,6
			c-1.1,3.7-2.8,7-5,9.9C39.8,29.1,37.1,26.6,34.9,23.7"/>
		<path id="XMLID_95_" class="st1" d="M34,37.9c-3.1-1.5-5.6-3.5-7.6-5.9c3-2.2,5.6-4.7,7.9-7.5c2.3,2.8,4.9,5.4,7.9,7.5
			c-2,2.4-4.5,4.4-7.6,5.9H34z"/>
		<path id="XMLID_94_" class="st2" d="M2.4,27.1c0-0.2,0-0.5,0.1-0.7l3-3c1,2.1,1.4,4.5,1.3,7.2C5.2,29.5,3.8,28.4,2.4,27.1"/>
		<path id="XMLID_93_" class="st2" d="M4.6,39.8C3,38.5,1.5,37.1,0,35.6c1.1-2.6,1.9-5.1,2.2-7.4c1.5,1.3,2.9,2.4,4.4,3.4
			c0,0.4-0.1,0.8-0.1,1.2C6.2,34.9,5.6,37.3,4.6,39.8"/>
		<path id="XMLID_92_" class="st2" d="M6.2,22.6l2.9-2.9c1.4,2,2.5,4,3.2,6.2C10.2,25.1,8.2,24,6.2,22.6"/>
		<path id="XMLID_91_" class="st2" d="M7.5,31.1c0.2-2.6-0.1-5-1-7.2c2,1.3,4,2.3,6.1,3c0.6,1.8,0.9,3.6,1.1,5.5
			c0.1,0.7,0.1,1.5,0.1,2.3C11.8,33.7,9.6,32.5,7.5,31.1"/>
		<path id="XMLID_90_" class="st2" d="M12.6,45.4c-2.5-1.4-4.9-3.1-7.3-5c1-2.7,1.7-5.2,2.1-7.5c0-0.3,0.1-0.5,0.1-0.8
			c2.1,1.4,4.3,2.5,6.5,3.5C13.9,38.7,13.4,42,12.6,45.4"/>
		<path id="XMLID_89_" class="st2" d="M9.9,18.9l3-3c0.2,0,0.5,0,0.7-0.1c1.3,1.4,2.4,2.9,3.4,4.4C14.4,20.3,12,19.9,9.9,18.9"/>
		<path id="XMLID_88_" class="st2" d="M13.4,26.2c-0.7-2.1-1.7-4.2-3-6.1c2.2,0.8,4.6,1.1,7.2,1c1.4,2.1,2.6,4.2,3.5,6.4
			c-0.8,0-1.5-0.1-2.3-0.1C17,27.1,15.2,26.8,13.4,26.2"/>
		<path id="XMLID_87_" class="st2" d="M14.8,35c0-0.9-0.1-1.8-0.1-2.7c-0.2-1.7-0.5-3.4-1-5.1c1.7,0.5,3.4,0.8,5.1,1
			c0.9,0.1,1.8,0.1,2.7,0.1c0.6,1.4,1,2.8,1.4,4.2c0.5,1.6,0.8,3.3,1,5c-1.7-0.2-3.3-0.6-5-1C17.6,36,16.2,35.5,14.8,35"/>
		<path id="XMLID_86_" class="st2" d="M23.9,49.3c-3.6-0.4-7.1-1.6-10.5-3.4c0.9-3.4,1.4-6.7,1.5-9.9c1.3,0.5,2.6,1,4,1.3
			c1.8,0.5,3.5,0.9,5.3,1.1C24.5,41.9,24.4,45.6,23.9,49.3"/>
		<path id="XMLID_85_" class="st2" d="M18.1,20.1c-1-1.5-2.1-3-3.4-4.4c2.3-0.4,4.8-1.1,7.4-2.2c1.5,1.5,2.9,3,4.2,4.6
			c-2.5,1-4.9,1.6-7.1,1.9C18.8,20.1,18.4,20.1,18.1,20.1"/>
		<path id="XMLID_84_" class="st2" d="M22.1,27.4c-0.9-2.2-2.1-4.4-3.5-6.5c0.3,0,0.5-0.1,0.8-0.1c2.4-0.3,4.9-1,7.6-2.1
			c1.9,2.3,3.6,4.8,5,7.3C28.5,26.9,25.2,27.4,22.1,27.4"/>
		<path id="XMLID_83_" class="st2" d="M24.8,37.6c-0.2-1.8-0.6-3.6-1.1-5.3c-0.4-1.3-0.8-2.7-1.3-4c3.2-0.1,6.5-0.6,9.9-1.5
			c1.8,3.4,3,6.9,3.4,10.5C32.1,37.9,28.5,38,24.8,37.6"/>
		<path id="XMLID_82_" class="st2" d="M34.3,48.2c-3.2,1.1-6.4,1.4-9.6,1.2c0.5-3.6,0.6-7.3,0.2-10.9c3.6,0.4,7.3,0.3,10.9-0.2
			c0.3,3.1-0.1,6.3-1.2,9.6L34.3,48.2z"/>
		<path id="XMLID_81_" class="st3" d="M55.1,15.8c0.2,0,0.5,0,0.7,0.1l3,3c-2.1,1-4.5,1.4-7.2,1.3C52.6,18.7,53.8,17.3,55.1,15.8"/>
		<path id="XMLID_80_" class="st3" d="M42.4,18.1c1.3-1.6,2.8-3.1,4.2-4.6c2.6,1.1,5.1,1.9,7.4,2.2c-1.3,1.5-2.4,2.9-3.4,4.4
			c-0.4,0-0.8-0.1-1.2-0.1C47.3,19.7,44.9,19,42.4,18.1"/>
		<path id="XMLID_79_" class="st3" d="M59.6,19.7l2.9,2.9c-2,1.4-4,2.5-6.2,3.2C57.1,23.7,58.2,21.6,59.6,19.7"/>
		<path id="XMLID_78_" class="st3" d="M51.1,21c2.6,0.2,5-0.1,7.2-1c-1.3,2-2.3,4-3,6.1c-1.8,0.6-3.6,0.9-5.5,1.1
			c-0.7,0.1-1.5,0.1-2.3,0.1C48.5,25.3,49.7,23.1,51.1,21"/>
		<path id="XMLID_77_" class="st3" d="M36.8,26c1.4-2.5,3.1-4.9,5-7.3c2.7,1,5.2,1.7,7.6,2.1c0.3,0,0.5,0.1,0.8,0.1
			c-1.4,2.1-2.5,4.3-3.5,6.5C43.4,27.4,40.1,26.9,36.8,26"/>
		<path id="XMLID_76_" class="st3" d="M63.3,23.4l3,3c0,0.2,0,0.5,0.1,0.7c-1.4,1.3-2.9,2.4-4.4,3.4C61.9,27.9,62.3,25.5,63.3,23.4"
			/>
		<path id="XMLID_75_" class="st3" d="M56,26.9c2.1-0.7,4.2-1.7,6.1-3c-0.8,2.2-1.1,4.6-1,7.2c-2.1,1.4-4.2,2.6-6.4,3.5
			c0-0.8,0.1-1.5,0.1-2.3C55.1,30.5,55.4,28.7,56,26.9"/>
		<path id="XMLID_74_" class="st3" d="M47.2,28.3c0.9,0,1.8-0.1,2.7-0.1c1.7-0.2,3.4-0.5,5.1-1c-0.5,1.7-0.8,3.4-1,5.1
			c-0.1,0.9-0.1,1.8-0.1,2.7c-1.4,0.6-2.8,1-4.2,1.4c-1.6,0.5-3.3,0.8-5,1c0.2-1.7,0.6-3.3,1-5C46.2,31.1,46.6,29.7,47.2,28.3"/>
		<path id="XMLID_72_" class="st3" d="M32.9,37.3c0.4-3.6,1.6-7.1,3.4-10.5c3.4,0.9,6.7,1.4,9.9,1.5c-0.5,1.3-1,2.6-1.3,4
			c-0.5,1.8-0.9,3.5-1.1,5.3C40.2,38,36.6,37.9,32.9,37.3"/>
		<path id="XMLID_71_" class="st3" d="M62,31.5c1.5-1,3-2.1,4.4-3.4c0.4,2.3,1.1,4.8,2.2,7.4c-1.5,1.5-3,2.9-4.6,4.2
			c-1-2.5-1.6-4.9-1.9-7.1C62.1,32.3,62.1,31.9,62,31.5"/>
		<path id="XMLID_69_" class="st3" d="M54.7,35.5c2.2-0.9,4.4-2.1,6.5-3.5c0,0.2,0.1,0.5,0.1,0.8c0.3,2.4,1,4.9,2.1,7.5
			c-2.3,1.9-4.8,3.6-7.3,5C55.3,42,54.8,38.7,54.7,35.5"/>
		<path id="XMLID_68_" class="st3" d="M44.6,38.3c1.8-0.2,3.5-0.6,5.3-1.1c1.3-0.4,2.7-0.8,4-1.3c0.1,3.2,0.6,6.6,1.5,9.9
			c-3.4,1.8-6.9,3-10.5,3.4C44.3,45.6,44.2,41.9,44.6,38.3"/>
		<path id="XMLID_67_" class="st3" d="M34,47.7c-1.1-3.2-1.4-6.4-1.2-9.6c3.6,0.5,7.3,0.6,10.9,0.2c-0.4,3.6-0.3,7.3,0.2,10.9
			c-3.1,0.3-6.3-0.1-9.6-1.2L34,47.7z"/>
	</g>
</g>
<g>
</g>
<g>
</g>
<g>
</g>
<g>
</g>
<g>
</g>
<g>
</g>
</svg>
